<svg width="27" height="24" viewBox="0 0 27 24" fill="none" xmlns="http://www.w3.org/2000/svg">
<path d="M13.1063 7.01875C13.2375 7.00469 13.3688 7 13.5 7C15.9844 7 18 8.97344 18 11.5C18 13.9844 15.9844 16 13.5 16C10.9734 16 9 13.9844 9 11.5C9 11.3687 9.00469 11.2375 9.01875 11.1063C9.45469 11.3172 9.96094 11.5 10.5 11.5C12.1547 11.5 13.5 10.1547 13.5 8.5C13.5 7.96094 13.3172 7.45469 13.1063 7.01875ZM22.5281 4.77812C24.7219 6.8125 26.1891 9.20781 26.8828 10.9234C27.0375 11.2937 27.0375 11.7062 26.8828 12.0766C26.1891 13.75 24.7219 16.1453 22.5281 18.2219C20.3203 20.275 17.2875 22 13.5 22C9.7125 22 6.67969 20.275 4.47282 18.2219C2.27907 16.1453 0.812816 13.75 0.115363 12.0766C0.0392092 11.8939 0 11.6979 0 11.5C0 11.3021 0.0392092 11.1061 0.115363 10.9234C0.812816 9.20781 2.27907 6.8125 4.47282 4.77812C6.67969 2.72688 9.7125 1 13.5 1C17.2875 1 20.3203 2.72688 22.5281 4.77812ZM13.5 4.75C9.77344 4.75 6.75 7.77344 6.75 11.5C6.75 15.2266 9.77344 18.25 13.5 18.25C17.2266 18.25 20.25 15.2266 20.25 11.5C20.25 7.77344 17.2266 4.75 13.5 4.75Z" fill="#6C6C6C"/>
</svg>
