<svg width="27" height="26" viewBox="0 0 27 26" fill="none" xmlns="http://www.w3.org/2000/svg">
<path d="M13.1074 9.65C13.2387 9.63569 13.3699 9.63092 13.5012 9.63092C15.9855 9.63092 18.0012 11.6388 18.0012 14.2093C18.0012 16.737 15.9855 18.7878 13.5012 18.7878C10.9746 18.7878 9.00116 16.737 9.00116 14.2093C9.00116 14.0758 9.00585 13.9423 9.01991 13.8087C9.45585 14.0233 9.9621 14.2093 10.5012 14.2093C12.1559 14.2093 13.5012 12.8406 13.5012 11.1571C13.5012 10.6086 13.3184 10.0935 13.1074 9.65ZM22.5293 7.37033C24.723 9.44016 26.1902 11.8772 26.884 13.6227C27.0387 13.9995 27.0387 14.4192 26.884 14.796C26.1902 16.4986 24.723 18.9356 22.5293 21.0484C20.3215 23.1373 17.2887 24.8923 13.5012 24.8923C9.71366 24.8923 6.68085 23.1373 4.47398 21.0484C2.28023 18.9356 0.813976 16.4986 0.116523 14.796C0.0403688 14.6101 0.00115967 14.4107 0.00115967 14.2093C0.00115967 14.008 0.0403688 13.8086 0.116523 13.6227C0.813976 11.8772 2.28023 9.44016 4.47398 7.37033C6.68085 5.28334 9.71366 3.52637 13.5012 3.52637C17.2887 3.52637 20.3215 5.28334 22.5293 7.37033V7.37033ZM13.5012 7.34172C9.7746 7.34172 6.75116 10.4178 6.75116 14.2093C6.75116 18.0008 9.7746 21.077 13.5012 21.077C17.2277 21.077 20.2512 18.0008 20.2512 14.2093C20.2512 10.4178 17.2277 7.34172 13.5012 7.34172Z" fill="#6C6C6C"/>
<line y1="-1" x2="32.3042" y2="-1" transform="matrix(0.669361 0.742937 -0.731308 0.682048 2.00116 2)" stroke="#6C6C6C" stroke-width="2"/>
</svg>
