<svg width="13" height="12" viewBox="0 0 13 12" fill="none" xmlns="http://www.w3.org/2000/svg">
<path d="M1.43111 11.7625L7.03914 6.44327C7.10571 6.37995 7.15297 6.31135 7.18093 6.23747C7.20888 6.16359 7.22264 6.08443 7.2222 6C7.2222 5.91557 7.20822 5.83641 7.18026 5.76253C7.1523 5.68865 7.10526 5.62005 7.03914 5.55673L1.43111 0.221636C1.2758 0.0738786 1.08165 0 0.848677 0C0.615703 0 0.41601 0.0791557 0.2496 0.237467C0.0831895 0.395778 -1.57356e-05 0.580475 -1.57356e-05 0.791557C-1.57356e-05 1.00264 0.0831895 1.18734 0.2496 1.34565L5.14207 6L0.2496 10.6544C0.0942836 10.8021 0.0166249 10.9843 0.0166249 11.2008C0.0166249 11.4174 0.0998302 11.6046 0.266241 11.7625C0.432651 11.9208 0.626797 12 0.848677 12C1.07056 12 1.2647 11.9208 1.43111 11.7625Z" fill="#333333"/>
<path d="M7.20891 11.7625L12.8169 6.44327C12.8835 6.37995 12.9308 6.31135 12.9587 6.23747C12.9867 6.16359 13.0004 6.08443 13 6C13 5.91557 12.986 5.83641 12.9581 5.76253C12.9301 5.68865 12.8831 5.62005 12.8169 5.55673L7.20891 0.221636C7.05359 0.0738786 6.85945 0 6.62647 0C6.3935 0 6.1938 0.0791557 6.02739 0.237467C5.86098 0.395778 5.77778 0.580475 5.77778 0.791557C5.77778 1.00264 5.86098 1.18734 6.02739 1.34565L10.9199 6L6.02739 10.6544C5.87208 10.8021 5.79442 10.9843 5.79442 11.2008C5.79442 11.4174 5.87762 11.6046 6.04403 11.7625C6.21044 11.9208 6.40459 12 6.62647 12C6.84835 12 7.0425 11.9208 7.20891 11.7625Z" fill="#333333"/>
</svg>
