<svg width="13" height="12" viewBox="0 0 13 12" fill="none" xmlns="http://www.w3.org/2000/svg">
<path d="M11.5689 11.7625L5.96086 6.44327C5.8943 6.37995 5.84704 6.31135 5.81908 6.23747C5.79112 6.16359 5.77737 6.08443 5.77781 6C5.77781 5.91557 5.79179 5.83641 5.81975 5.76253C5.8477 5.68865 5.89474 5.62005 5.96086 5.55673L11.5689 0.221636C11.7242 0.0738786 11.9184 0 12.1513 0C12.3843 0 12.584 0.0791557 12.7504 0.237467C12.9168 0.395778 13 0.580475 13 0.791557C13 1.00264 12.9168 1.18734 12.7504 1.34565L7.85794 6L12.7504 10.6544C12.9057 10.8021 12.9834 10.9843 12.9834 11.2008C12.9834 11.4174 12.9002 11.6046 12.7338 11.7625C12.5674 11.9208 12.3732 12 12.1513 12C11.9295 12 11.7353 11.9208 11.5689 11.7625Z" fill="#333333"/>
<path d="M5.79109 11.7625L0.183062 6.44327C0.116498 6.37995 0.0692371 6.31135 0.0412802 6.23747C0.0133232 6.16359 -0.00043336 6.08443 1.04007e-05 6C1.04007e-05 5.91557 0.0139889 5.83641 0.0419458 5.76253C0.0699028 5.68865 0.116941 5.62005 0.183062 5.55673L5.79109 0.221636C5.94641 0.0738786 6.14055 0 6.37353 0C6.6065 0 6.8062 0.0791557 6.97261 0.237467C7.13902 0.395778 7.22222 0.580475 7.22222 0.791557C7.22222 1.00264 7.13902 1.18734 6.97261 1.34565L2.08014 6L6.97261 10.6544C7.12792 10.8021 7.20558 10.9843 7.20558 11.2008C7.20558 11.4174 7.12238 11.6046 6.95597 11.7625C6.78956 11.9208 6.59541 12 6.37353 12C6.15165 12 5.9575 11.9208 5.79109 11.7625Z" fill="#333333"/>
</svg>
