<svg width="8" height="12" viewBox="0 0 8 12" fill="none" xmlns="http://www.w3.org/2000/svg">
<path d="M1.58525 11.7625L7.79722 6.44327C7.87096 6.37995 7.92331 6.31135 7.95427 6.23747C7.98524 6.16359 8.00048 6.08443 7.99999 6C7.99999 5.91557 7.9845 5.83641 7.95354 5.76253C7.92257 5.68865 7.87046 5.62005 7.79722 5.55673L1.58525 0.221636C1.41321 0.0738786 1.19815 0 0.94009 0C0.682026 0 0.460829 0.0791557 0.276497 0.237467C0.0921655 0.395778 0 0.580475 0 0.791557C0 1.00264 0.0921655 1.18734 0.276497 1.34565L5.69584 6L0.276497 10.6544C0.104455 10.8021 0.0184326 10.9843 0.0184326 11.2008C0.0184326 11.4174 0.110599 11.6046 0.29493 11.7625C0.479261 11.9208 0.694315 12 0.94009 12C1.18587 12 1.40092 11.9208 1.58525 11.7625Z" fill="#333333"/>
</svg>
