<svg width="8" height="12" viewBox="0 0 8 12" fill="none" xmlns="http://www.w3.org/2000/svg">
<path d="M6.41475 11.7625L0.202776 6.44327C0.129044 6.37995 0.0766934 6.31135 0.0457257 6.23747C0.014758 6.16359 -0.00048003 6.08443 1.15207e-05 6C1.15207e-05 5.91557 0.0154954 5.83641 0.0464631 5.76253C0.0774308 5.68865 0.129535 5.62005 0.202776 5.55673L6.41475 0.221636C6.58679 0.0738786 6.80185 0 7.05991 0C7.31797 0 7.53917 0.0791557 7.7235 0.237467C7.90783 0.395778 8 0.580475 8 0.791557C8 1.00264 7.90783 1.18734 7.7235 1.34565L2.30416 6L7.7235 10.6544C7.89555 10.8021 7.98157 10.9843 7.98157 11.2008C7.98157 11.4174 7.8894 11.6046 7.70507 11.7625C7.52074 11.9208 7.30569 12 7.05991 12C6.81413 12 6.59908 11.9208 6.41475 11.7625Z" fill="#333333"/>
</svg>
